<?xml version="1.0" standalone="no"?><!DOCTYPE svg PUBLIC "-//W3C//DTD SVG 1.1//EN" "http://www.w3.org/Graphics/SVG/1.1/DTD/svg11.dtd" >
<svg xmlns="http://www.w3.org/2000/svg">
<defs>
    <font id="remixicon" horiz-adv-x="1200">
    <font-face font-family="remixicon"
        units-per-em="1200" ascent="1200"
        descent="0" />
    <missing-glyph horiz-adv-x="0" /><glyph glyph-name="search-2-line"
            unicode="&#xEFF3;"
            horiz-adv-x="1200" d="M550 1100C798.4 1100 1000 898.4 1000 650S798.4 200 550 200S100 401.6 100 650S301.6 1100 550 1100zM550 300C743.35 300 900 456.65 900 650C900 843.4000000000001 743.35 1000 550 1000C356.6 1000 200 843.4000000000001 200 650C200 456.65 356.6 300 550 300zM974.25 296.45L1115.7 155.05L1044.95 84.3L903.55 225.75L974.2500000000002 296.4500000000001z" /><glyph glyph-name="shopping-cart-2-line"
            unicode="&#xF03C;"
            horiz-adv-x="1200" d="M200 879.3L37.85 1041.4L108.6 1112.15L270.7 950H1032.8A50 50 0 0 0 1080.6999999999998 885.65L960.7 485.6500000000001A50 50 0 0 0 912.8 450.0000000000001H300V350H850V250H250A50 50 0 0 0 200 300V879.3zM300 850V550H875.6L965.6 850H300zM275 50A75 75 0 1 0 275 200A75 75 0 0 0 275 50zM875 50A75 75 0 1 0 875 200A75 75 0 0 0 875 50z" /><glyph glyph-name="star-s-fill"
            unicode="&#xF098;"
            horiz-adv-x="1200" d="M600 350L306.1 170.5L386 505.5L124.5 729.5L467.75 757L600 1075L732.25 757L1075.55 729.5L814 505.5L893.9 170.5z" /><glyph glyph-name="star-half-s-fill"
            unicode="&#xF095;"
            horiz-adv-x="1200" d="M600 467.1999999999999L740.85 381.2L702.55 541.6999999999999L827.9 649.05L663.4000000000001 662.25L600 814.5999999999999V467.1999999999999zM600 350L306.1 170.5L386 505.5L124.5 729.5L467.75 757L600 1075L732.25 757L1075.55 729.5L814 505.5L893.9 170.5L600 350z" /><glyph glyph-name="star-s-line"
            unicode="&#xF099;"
            horiz-adv-x="1200" d="M600 350L306.1 170.5L386 505.5L124.5 729.5L467.75 757L600 1075L732.25 757L1075.55 729.5L814 505.5L893.9 170.5L600 350zM600 467.1999999999999L740.85 381.2L702.55 541.6999999999999L827.9 649.05L663.4000000000001 662.25L600 814.5999999999999L536.5999999999999 662.25L372.1 649.05L497.45 541.6999999999999L459.15 381.2L600 467.15z" /><glyph glyph-name="heart-line"
            unicode="&#xEDAC;"
            horiz-adv-x="1200" d="M600 100L140.4 559.6C31.4 688 37.1 880.6 158.05 1001.6A325 325 0 0 0 600 1018A325 325 0 0 0 1058.95 560.3L600 100zM983.1 625.45A225 225 0 0 1 665.3499999999999 942.3L600 885.9L534.65 942.3A225 225 0 0 1 216.9 625.45L222.6 618.85L600 241.4L977.4 618.8499999999999L983.1000000000003 625.4499999999999z" /><glyph glyph-name="heart-fill"
            unicode="&#xEDAB;"
            horiz-adv-x="1200" d="M1058.9499999999998 560.3L1059.6 559.6L600 100L140.4 559.6L141.05 560.3A325 325 0 0 0 600 1018A325 325 0 0 0 1058.95 560.3z" /><glyph glyph-name="play-circle-line"
            unicode="&#xEF43;"
            horiz-adv-x="1200" d="M600 100C323.85 100 100 323.85 100 600S323.85 1100 600 1100S1100 876.15 1100 600S876.15 100 600 100zM600 200A400 400 0 1 1 600 1000A400 400 0 0 1 600 200zM531.1 779.25L775.05 616.6500000000001A20.000000000000004 20.000000000000004 0 0 0 775.05 583.3500000000001L531.05 420.7500000000001A20.000000000000004 20.000000000000004 0 0 0 499.9999999999999 437.3500000000002V762.65A20.000000000000004 20.000000000000004 0 0 0 531.0999999999999 779.25z" /><glyph glyph-name="eye-close-line"
            unicode="&#xEC6F;"
            horiz-adv-x="1200" d="M467.1 260.9L370.55 286.8000000000001L409.9000000000001 433.75A549.4000000000001 549.4000000000001 0 0 0 248.05 527.35L140.4 419.6500000000001L69.65 490.4L177.35 598.0500000000001A547.85 547.85 0 0 0 58.8 851.55L157.2 869.5C195.15 659.4 378.95 500 600 500C821.0000000000001 500 1004.85 659.4 1042.8000000000002 869.5L1141.2 851.6A547.85 547.85 0 0 0 1022.7 598.0500000000001L1130.35 490.4L1059.6 419.6500000000001L951.95 527.35A549.4000000000001 549.4000000000001 0 0 0 790.1 433.75L829.4500000000002 286.75L732.9000000000001 260.9L693.5 407.9A553.6 553.6 0 0 0 506.5000000000001 407.9L467.1 260.9z" /><glyph glyph-name="eye-line"
            unicode="&#xEC71;"
            horiz-adv-x="1200" d="M600 1050C869.6 1050 1093.9 856 1140.95 600C1093.95 344 869.6000000000001 150 600.0000000000001 150C330.4000000000001 150 106.1000000000001 344 59.0500000000001 600C106.05 856 330.4 1050 600 1050zM600 250A450.25000000000006 450.25000000000006 0 0 1 1038.8500000000001 600A450.25000000000006 450.25000000000006 0 0 1 161.1500000000001 600A450.25000000000006 450.25000000000006 0 0 1 600 250zM600 375A225 225 0 1 0 600 825A225 225 0 0 0 600 375zM600 475A125 125 0 1 1 600 725A125 125 0 0 1 600 475z" /><glyph glyph-name="check-line"
            unicode="&#xEB58;"
            horiz-adv-x="1200" d="M500 441.4L959.6 901.05L1030.35 830.3499999999999L500 300L181.8 618.2L252.5 688.9000000000001z" /><glyph glyph-name="checkbox-blank-fill"
            unicode="&#xEB5B;"
            horiz-adv-x="1200" d="M200 1050H1000A50 50 0 0 0 1050 1000V200A50 50 0 0 0 1000 150H200A50 50 0 0 0 150 200V1000A50 50 0 0 0 200 1050z" /><glyph glyph-name="checkbox-blank-line"
            unicode="&#xEB5C;"
            horiz-adv-x="1200" d="M200 1050H1000A50 50 0 0 0 1050 1000V200A50 50 0 0 0 1000 150H200A50 50 0 0 0 150 200V1000A50 50 0 0 0 200 1050zM250 950V250H950V950H250z" /><glyph glyph-name="checkbox-fill"
            unicode="&#xEB5F;"
            horiz-adv-x="1200" d="M200 1050H1000A50 50 0 0 0 1050 1000V200A50 50 0 0 0 1000 150H200A50 50 0 0 0 150 200V1000A50 50 0 0 0 200 1050zM550.15 400L903.65 753.55L832.9499999999999 824.25L550.15 541.4L408.7 682.85L338 612.15L550.15 400z" /><glyph glyph-name="checkbox-line"
            unicode="&#xEB62;"
            horiz-adv-x="1200" d="M200 1050H1000A50 50 0 0 0 1050 1000V200A50 50 0 0 0 1000 150H200A50 50 0 0 0 150 200V1000A50 50 0 0 0 200 1050zM250 950V250H950V950H250zM550.15 400L338 612.15L408.7 682.85L550.15 541.4L832.9499999999999 824.25L903.7 753.55L550.15 400z" /><glyph glyph-name="checkbox-blank-circle-line"
            unicode="&#xEB5A;"
            horiz-adv-x="1200" d="M600 100C323.85 100 100 323.85 100 600S323.85 1100 600 1100S1100 876.15 1100 600S876.15 100 600 100zM600 200A400 400 0 1 1 600 1000A400 400 0 0 1 600 200z" /><glyph glyph-name="radio-button-line"
            unicode="&#xEF83;"
            horiz-adv-x="1200" d="M600 100C323.85 100 100 323.85 100 600S323.85 1100 600 1100S1100 876.15 1100 600S876.15 100 600 100zM600 200A400 400 0 1 1 600 1000A400 400 0 0 1 600 200zM600 350A250 250 0 1 0 600 850A250 250 0 0 0 600 350z" /><glyph glyph-name="radio-button-fill"
            unicode="&#xEF82;"
            horiz-adv-x="1200" d="M600 100C323.85 100 100 323.85 100 600S323.85 1100 600 1100S1100 876.15 1100 600S876.15 100 600 100zM600 400A200 200 0 1 1 600 800A200 200 0 0 1 600 400z" /><glyph glyph-name="close-line"
            unicode="&#xEB76;"
            horiz-adv-x="1200" d="M600 670.6999999999999L847.5 918.2L918.2 847.5L670.7 600L918.2 352.5L847.5 281.8L600 529.3L352.5 281.8L281.8 352.5L529.3000000000001 600L281.8 847.5L352.5 918.2z" /><glyph glyph-name="subtract-line"
            unicode="&#xF0B7;"
            horiz-adv-x="1200" d="M250 650H950V550H250z" /><glyph glyph-name="add-line"
            unicode="&#xEA10;"
            horiz-adv-x="1200" d="M550 650V950H650V650H950V550H650V250H550V550H250V650z" /><glyph glyph-name="arrow-up-fill"
            unicode="&#xEA6E;"
            horiz-adv-x="1200" d="M650 600V200H550V600H200L600 1000L1000 600z" /><glyph glyph-name="arrow-down-fill"
            unicode="&#xEA48;"
            horiz-adv-x="1200" d="M650 600H1000L600 200L200 600H550V1000H650z" /><glyph glyph-name="arrow-left-fill"
            unicode="&#xEA5C;"
            horiz-adv-x="1200" d="M600 550V200L200 600L600 1000V650H1000V550z" /><glyph glyph-name="arrow-right-fill"
            unicode="&#xEA66;"
            horiz-adv-x="1200" d="M600 550H200V650H600V1000L1000 600L600 200z" /><glyph glyph-name="arrow-drop-up-line"
            unicode="&#xEA53;"
            horiz-adv-x="1200" d="M600 608.6L458.6 467.15L387.85 537.85L600 750L812.1500000000001 537.85L741.4000000000001 467.15L600 608.6z" /><glyph glyph-name="arrow-drop-right-line"
            unicode="&#xEA51;"
            horiz-adv-x="1200" d="M608.6 600L467.15 741.4L537.85 812.15L750 600L537.85 387.8499999999999L467.15 458.5999999999999z" /><glyph glyph-name="arrow-drop-down-line"
            unicode="&#xEA4D;"
            horiz-adv-x="1200" d="M600 450L387.85 662.15L458.6 732.85L600 591.4L741.4 732.85L812.15 662.15z" /><glyph glyph-name="arrow-drop-left-line"
            unicode="&#xEA4F;"
            horiz-adv-x="1200" d="M591.4 600L732.85 458.6L662.15 387.85L450 600L662.15 812.1500000000001L732.85 741.4L591.4 600z" /><glyph glyph-name="percent-line"
            unicode="&#xEF29;"
            horiz-adv-x="1200" d="M875 150A175 175 0 1 0 875 500A175 175 0 0 0 875 150zM875 250A75 75 0 1 1 875 400A75 75 0 0 1 875 250zM325 700A175 175 0 1 0 325 1050A175 175 0 0 0 325 700zM325 800A75 75 0 1 1 325 950A75 75 0 0 1 325 800zM953.55 1024.25L1024.25 953.55L246.5 175.75L175.8 246.4500000000001L953.5 1024.25z" /><glyph glyph-name="menu-line"
            unicode="&#xEE94;"
            horiz-adv-x="1200" d="M150 1000H1050V900H150V1000zM150 650H1050V550H150V650zM150 300H1050V200H150V300z" /><glyph glyph-name="refresh-fill"
            unicode="&#xEF94;"
            horiz-adv-x="1200" d="M600 100C323.85 100 100 323.85 100 600S323.85 1100 600 1100S1100 876.15 1100 600S876.15 100 600 100zM841 346.2A350 350 0 0 1 451.6 917.1L500.35 829.3499999999999A250 250 0 0 0 850 600H700L841 346.2zM748.4 282.9000000000001L699.65 370.65A250 250 0 0 0 350 600H500L359 853.8A350 350 0 0 1 748.4 282.9000000000001z" /><glyph glyph-name="service-fill"
            unicode="&#xF003;"
            horiz-adv-x="1200" d="M706.0500000000001 676A50 50 0 0 1 635.35 676L600 640.7A100 100 0 1 0 458.6 782.0999999999999L740.1 1063.7A325 325 0 0 0 1058.9499999999998 535.3L953.55 428.55L706.05 676.0500000000001zM158.05 976.6A325.15 325.15 0 0 0 558.5 1023.5L387.85 852.8A200 200 0 0 1 663.5 563.1L670.6999999999999 569.95L882.85 357.85L670.6999999999999 145.7000000000001A100 100 0 0 0 529.3000000000001 145.7000000000001L158 517A325 325 0 0 0 158 976.6z" /><glyph glyph-name="settings-2-fill"
            unicode="&#xF005;"
            horiz-adv-x="1200" d="M434.3 1000L564.65 1130.35A50 50 0 0 0 635.3499999999999 1130.35L765.7 1000H950A50 50 0 0 0 1000 950V765.7L1130.35 635.35A50 50 0 0 0 1130.35 564.6500000000001L1000 434.3V250A50 50 0 0 0 950 200H765.7L635.35 69.6500000000001A50 50 0 0 0 564.6500000000001 69.6500000000001L434.3 200H250A50 50 0 0 0 200 250V434.3L69.65 564.65A50 50 0 0 0 69.65 635.3499999999999L200 765.7V950A50 50 0 0 0 250 1000H434.3zM600 450A150 150 0 1 1 600 750A150 150 0 0 1 600 450z" /><glyph glyph-name="settings-5-fill"
            unicode="&#xF00B;"
            horiz-adv-x="1200" d="M106.6 518.5A497.1 497.1 0 0 0 106.6 681.5C161.7 680.1999999999999 211.2 706.5999999999999 230.45 753.05C249.7 799.55 233.35 853.25 193.45 891.2A497.1 497.1 0 0 0 308.75 1006.55C346.75 966.65 400.4500000000001 950.3 446.95 969.55C493.45 988.8 519.8000000000001 1038.35 518.45 1093.4A497.1 497.1 0 0 0 681.55 1093.4C680.2 1038.3 706.6 988.8 753.05 969.55C799.55 950.3 853.2500000000001 966.65 891.1999999999999 1006.55A497.1 497.1 0 0 0 1006.5499999999998 891.25C966.6499999999997 853.25 950.2999999999998 799.55 969.55 753.05C988.8 706.55 1038.35 680.1999999999999 1093.3999999999999 681.55A497.1 497.1 0 0 0 1093.3999999999999 518.45C1038.3 519.8 988.8 493.4 969.55 446.9500000000001C950.2999999999998 400.4500000000001 966.6499999999997 346.7499999999999 1006.5499999999998 308.8000000000001A497.1 497.1 0 0 0 891.2499999999998 193.4500000000002C853.2499999999997 233.3500000000002 799.5499999999998 249.7000000000002 753.0499999999998 230.4500000000001C706.5499999999998 211.2000000000001 680.1999999999998 161.6500000000001 681.5499999999998 106.6000000000001A497.1 497.1 0 0 0 518.4499999999998 106.6000000000001C519.7999999999997 161.7000000000001 493.3999999999999 211.2000000000001 446.9499999999998 230.4500000000001C400.4499999999998 249.7000000000002 346.7499999999999 233.3500000000002 308.7999999999999 193.4500000000002A497.1 497.1 0 0 0 193.4499999999999 308.7500000000003C233.3499999999998 346.7500000000004 249.6999999999998 400.4500000000002 230.4499999999998 446.9500000000002C211.1999999999998 493.4500000000002 161.6499999999998 519.8000000000002 106.5999999999998 518.4500000000002zM600 450A150 150 0 1 1 600 750A150 150 0 0 1 600 450z" /><glyph glyph-name="shield-user-fill"
            unicode="&#xF02B;"
            horiz-adv-x="1200" d="M189.15 1058.7L600 1150L1010.85 1058.7A50 50 0 0 0 1050 1009.9V510.5500000000001A300 300 0 0 0 916.4 260.9500000000001L600 50L283.6 260.9500000000001A300 300 0 0 0 150 510.5V1009.9A50 50 0 0 0 189.15 1058.7zM600 650A125 125 0 1 1 600 900A125 125 0 0 1 600 650zM376.35 400H823.65A225 225 0 0 1 376.35 400z" /><glyph glyph-name="shopping-bag-3-fill"
            unicode="&#xF035;"
            horiz-adv-x="1200" d="M325 1100H875A50 50 0 0 0 915 1080L1050 900V150A50 50 0 0 0 1000 100H200A50 50 0 0 0 150 150V900L285 1080A50 50 0 0 0 325 1100zM925 900L850 1000H350L275 900H925zM450 700H350V600A250 250 0 0 1 850 600V700H750V600A150 150 0 0 0 450 600V700z" /><glyph glyph-name="shopping-bag-fill"
            unicode="&#xF037;"
            horiz-adv-x="1200" d="M600 1150A250 250 0 0 0 850 900V800H1000A50 50 0 0 0 1050 750V150A50 50 0 0 0 1000 100H200A50 50 0 0 0 150 150V750A50 50 0 0 0 200 800H350V900A250 250 0 0 0 600 1150zM850 650H750V600A50 50 0 0 1 849.65 594.15L850 600V650zM450 650H350V600A50 50 0 0 1 449.6500000000001 594.15L450 600V650zM600 1050A150 150 0 0 1 450.25 908.8L450 900V800H750V900A150 150 0 0 1 608.8 1049.75L600 1050z" /><glyph glyph-name="shopping-basket-fill"
            unicode="&#xF039;"
            horiz-adv-x="1200" d="M600 1100A300 300 0 0 0 900 800V750H1100V650H1041.6499999999999L1003.7999999999998 195.8500000000001A50 50 0 0 0 953.9999999999998 150H246A50 50 0 0 0 196.2 195.8500000000001L158.3 650H100V750H300V800A300 300 0 0 0 600 1100zM650 550H550V350H650V550zM450 550H350V350H450V550zM850 550H750V350H850V550zM600 1000A200 200 0 0 1 400.25 810L400 800V750H800V800A200 200 0 0 1 610 999.75L600 1000z" /><glyph glyph-name="shopping-cart-fill"
            unicode="&#xF03D;"
            horiz-adv-x="1200" d="M300 750H996.9L1021.9 850H400V950H1086A50 50 0 0 0 1134.5 887.8499999999999L1009.4999999999998 387.8499999999999A50 50 0 0 0 961 349.9999999999998H250A50 50 0 0 0 200 399.9999999999998V1000H100V1100H250A50 50 0 0 0 300 1050V750zM300 50A100 100 0 1 0 300 250A100 100 0 0 0 300 50zM900 50A100 100 0 1 0 900 250A100 100 0 0 0 900 50z" /><glyph glyph-name="upload-cloud-fill"
            unicode="&#xF13F;"
            horiz-adv-x="1200" d="M350 150.9499999999998A325 325 0 0 0 203.2 750.9499999999999A400.04999999999995 400.04999999999995 0 0 0 996.8 750.9499999999999A325 325 0 0 0 850 150.9499999999998V150H350V150.9499999999998zM650 550H800L600 800L400 550H550V350H650V550z" /><glyph glyph-name="government-fill"
            unicode="&#xED81;"
            horiz-adv-x="1200" d="M100 250V800H50V900H200V1000A50 50 0 0 0 250 1050H950A50 50 0 0 0 1000 1000V900H1150V800H1100V250H1150V150H50V250H100zM650 250V600H550V250H650zM400 250V600H300V250H400zM900 250V600H800V250H900zM300 950V900H900V950H300z" /><glyph glyph-name="heart-2-fill"
            unicode="&#xEDA7;"
            horiz-adv-x="1200" d="M141.05 560.3A325 325 0 0 0 511.7 1072.3H511.6L299.5 860.1L370.2 789.4000000000001L582.3000000000001 1001.5A325 325 0 0 0 1041.9499999999998 541.9000000000001L600 100L140.4 559.6L141.05 560.3z" /><glyph glyph-name="hearts-fill"
            unicode="&#xEDAD;"
            horiz-adv-x="1200" d="M540.85 977.3L550 968.55A300 300 0 0 0 1061.5500000000002 774.8A275.34999999999997 275.34999999999997 0 0 1 855.6000000000001 748.0999999999999L850 744.8000000000001L844.4000000000001 748.1500000000001A275 275 0 0 1 514.1500000000001 314.5L629.25 199.3000000000001L550 120L125.75 544.2499999999999A300 300 0 0 0 540.85 977.2999999999998zM1115.15 632.65A175 175 0 0 0 1115.15 385.15L850 120L584.8499999999999 385.15A175 175 0 1 0 832.3499999999999 632.65L850 615L867.6999999999999 632.65A175 175 0 0 0 1115.1999999999998 632.65z" /><glyph glyph-name="price-tag-3-fill"
            unicode="&#xEF5A;"
            horiz-adv-x="1200" d="M545 1095L1039.95 1024.25L1110.65 529.25L651.0500000000001 69.6500000000001A50 50 0 0 0 580.35 69.6500000000001L85.35 564.6500000000001A50 50 0 0 0 85.35 635.35L545 1095zM686.4 670.6999999999999A100 100 0 1 1 827.8000000000001 812.1500000000001A100 100 0 0 1 686.4000000000001 670.6999999999999z" /><glyph glyph-name="send-plane-fill"
            unicode="&#xEFFC;"
            horiz-adv-x="1200" d="M97.3 734.25C71.2 742.95 70.95 757 97.8 765.95L1052.1499999999999 1084.05C1078.6 1092.8500000000001 1093.75 1078.05 1086.35 1052.15L813.65 97.8500000000001C806.1500000000001 71.4000000000001 790.9 70.5 779.6999999999999 95.5999999999999L600 500L900 900L500 600L97.3 734.25z" /><glyph glyph-name="function-line"
            unicode="&#xED47;"
            horiz-adv-x="1200" d="M150 1050H550V650H150V1050zM150 550H550V150H150V550zM650 1050H1050V650H650V1050zM650 550H1050V150H650V550zM750 950V750H950V950H750zM750 450V250H950V450H750zM250 950V750H450V950H250zM250 450V250H450V450H250z" /><glyph glyph-name="function-fill"
            unicode="&#xED46;"
            horiz-adv-x="1200" d="M150 1050H550V650H150V1050zM150 550H550V150H150V550zM650 1050H1050V650H650V1050zM650 550H1050V150H650V550z" /><glyph glyph-name="delete-bin-line"
            unicode="&#xEBFD;"
            horiz-adv-x="1200" d="M850 900H1100V800H1000V150A50 50 0 0 0 950 100H250A50 50 0 0 0 200 150V800H100V900H350V1050A50 50 0 0 0 400 1100H800A50 50 0 0 0 850 1050V900zM900 800H300V200H900V800zM450 650H550V350H450V650zM650 650H750V350H650V650zM450 1000V900H750V1000H450z" /><glyph glyph-name="calendar-2-fill"
            unicode="&#xEB0F;"
            horiz-adv-x="1200" d="M850 1050H1050A50 50 0 0 0 1100 1000V200A50 50 0 0 0 1050 150H150A50 50 0 0 0 100 200V1000A50 50 0 0 0 150 1050H350V1150H450V1050H750V1150H850V1050zM200 750V250H1000V750H200zM300 650H400V550H300V650zM550 650H650V550H550V650zM800 650H900V550H800V650z" /><glyph glyph-name="error-warning-fill"
            unicode="&#xEC5C;"
            horiz-adv-x="1200" d="M600 100C323.85 100 100 323.85 100 600S323.85 1100 600 1100S1100 876.15 1100 600S876.15 100 600 100zM550 450V350H650V450H550zM550 850V550H650V850H550z" /><glyph glyph-name="share-line"
            unicode="&#xF020;"
            horiz-adv-x="1200" d="M656 348.85L446.05 463.35A200 200 0 1 0 446.05 736.5999999999999L656.05 851.0999999999999A200 200 0 1 0 703.9999999999999 763.3499999999999L493.9999999999999 648.85A200.4 200.4 0 0 0 493.9999999999999 551.15L703.9499999999999 436.65A200 200 0 1 0 656 348.9000000000001zM300 500A100 100 0 1 1 300 700A100 100 0 0 1 300 500zM850 800A100 100 0 1 1 850 1000A100 100 0 0 1 850 800zM850 200A100 100 0 1 1 850 400A100 100 0 0 1 850 200z" /><glyph glyph-name="error-warning-line"
            unicode="&#xEC5D;"
            horiz-adv-x="1200" d="M600 100C323.85 100 100 323.85 100 600S323.85 1100 600 1100S1100 876.15 1100 600S876.15 100 600 100zM600 200A400 400 0 1 1 600 1000A400 400 0 0 1 600 200zM550 450H650V350H550V450zM550 850H650V550H550V850z" /></font>
</defs>
</svg>
