<svg width="80" height="80" viewBox="0 0 80 80" fill="none" xmlns="http://www.w3.org/2000/svg">
<g>
<path d="M25.6911 54.3089C25.0807 53.6988 24.0917 53.6988 23.4812 54.3089L8.89497 68.8952C8.28482 69.5053 8.28482 70.4947 8.89497 71.105C9.20029 71.41 9.60013 71.5625 9.99997 71.5625C10.3998 71.5625 10.7997 71.41 11.1048 71.1049L25.6911 56.5186C26.3012 55.9086 26.3012 54.9192 25.6911 54.3089Z" fill="#AED581"/>
<path d="M6.26105 73.7386C5.65074 73.1288 4.66168 73.1288 4.05137 73.7388L0.457617 77.3325C-0.152539 77.9427 -0.152539 78.932 0.457617 79.5423C0.762773 79.8473 1.16262 79.9998 1.56246 79.9998C1.9623 79.9998 2.36215 79.8472 2.6673 79.5422L6.26105 75.9485C6.87121 75.3383 6.87121 74.3489 6.26105 73.7386Z" fill="#AED581"/>
<path d="M22.2888 77.2404C21.9983 76.9498 21.5952 76.7826 21.1843 76.7826C20.7716 76.7826 20.3702 76.9498 20.0796 77.2404C19.789 77.531 19.6218 77.9326 19.6218 78.3451C19.6218 78.756 19.7888 79.1592 20.0796 79.4498C20.3702 79.7404 20.7733 79.9076 21.1843 79.9076C21.5952 79.9076 21.9983 79.7404 22.2888 79.4498C22.5794 79.1592 22.7468 78.756 22.7468 78.3451C22.7468 77.9326 22.5796 77.531 22.2888 77.2404Z" fill="#8BC34A"/>
<path d="M33.9143 65.6147C33.3044 65.0046 32.3154 65.0046 31.7046 65.6147L23.9786 73.3405C23.3685 73.9507 23.3685 74.94 23.9786 75.5502C24.2838 75.8554 24.6836 76.0079 25.0835 76.0079C25.4833 76.0079 25.8832 75.8552 26.1883 75.5502L33.9143 67.8244C34.5244 67.2143 34.5244 66.2249 33.9143 65.6147Z" fill="#AED581"/>
<path d="M60.5787 65.0217C59.9684 64.4117 58.9793 64.4117 58.369 65.0217L50.6222 72.7686C50.012 73.3788 50.012 74.3681 50.6222 74.9785C50.9273 75.2835 51.3272 75.4361 51.727 75.4361C52.1268 75.4361 52.5267 75.2835 52.8318 74.9785L60.5787 67.2316C61.1889 66.6214 61.1889 65.6321 60.5787 65.0217Z" fill="#AED581"/>
<path d="M79.2118 0.205116C78.7245 -0.0730093 78.1251 -0.0683218 77.6423 0.217303L49.0088 17.1492C48.266 17.5884 48.0199 18.5465 48.4592 19.2893C48.8982 20.032 49.8563 20.2781 50.5993 19.839L71.1434 7.69074L32.8768 47.3959L13.8443 41.5731L38.6826 26.8856C39.4254 26.4462 39.6715 25.4881 39.2323 24.7453C38.7932 24.0026 37.8349 23.7562 37.0921 24.1956L9.20477 40.6861C8.67196 41.0012 8.37524 41.6011 8.44852 42.2159C8.5218 42.8307 8.95102 43.3442 9.54289 43.5253L32.2724 50.479L42.3001 68.7311C42.3106 68.75 42.3213 68.7659 42.3324 68.7801C42.4998 69.0592 42.7506 69.2872 43.0634 69.4187C43.2592 69.5011 43.4649 69.5412 43.6693 69.5412C44.0698 69.5412 44.464 69.3872 44.7617 69.0961L56.292 57.8273L77.9804 64.4626C78.1304 64.5084 78.2843 64.5311 78.4374 64.5311C78.7681 64.5311 79.0946 64.4261 79.3668 64.2247C79.7651 63.93 80.0001 63.4639 80.0001 62.9686V1.5623C80.0001 1.00121 79.6992 0.483084 79.2118 0.205116ZM42.3853 51.442C42.2043 51.7034 42.1073 52.0137 42.1073 52.3317V61.8897L35.2599 49.4264L65.5601 17.9873L42.3853 51.442ZM45.2323 64.2668V54.4439L52.887 56.7857L45.2323 64.2668ZM76.8751 60.8565L46.1721 51.4634L76.8751 7.14105V60.8565Z" fill="#8BC34A"/>
<path d="M44.297 21.2984C44.0064 21.0078 43.6033 20.8406 43.1923 20.8406C42.7814 20.8406 42.3783 21.0078 42.0876 21.2984C41.7972 21.589 41.6298 21.9922 41.6298 22.4047C41.6298 22.8156 41.797 23.2172 42.0876 23.5078C42.3783 23.8 42.7814 23.9656 43.1923 23.9656C43.6033 23.9656 44.0064 23.8 44.297 23.5078C44.5875 23.2172 44.7548 22.8156 44.7548 22.4047C44.7548 21.9922 44.5876 21.589 44.297 21.2984Z" fill="#8BC34A"/>
</g>
</svg>
